<svg width="124" height="37" viewBox="0 0 124 37" fill="none" xmlns="http://www.w3.org/2000/svg">
<rect width="37" height="37" rx="18.5" fill="#133A72"/>
<path d="M48.2187 27.9999C47.6665 27.9999 47.2188 27.5522 47.2188 26.9999V10.0908C47.2188 9.53853 47.6665 9.09082 48.2188 9.09082H55.3807C56.7841 9.09082 58.0121 9.36781 59.0646 9.92179C60.1172 10.4758 60.9358 11.2544 61.5206 12.2577C62.1054 13.261 62.3977 14.4336 62.3977 15.7755C62.3977 17.1296 62.0961 18.3022 61.4929 19.2932C60.8958 20.2842 60.0556 21.0475 58.9723 21.583C57.8951 22.1185 56.6364 22.3863 55.196 22.3863H51.321C50.7687 22.3863 50.321 21.9386 50.321 21.3863V19.3976C50.321 18.8454 50.7687 18.3976 51.321 18.3976H54.1619C54.7652 18.3976 55.2791 18.293 55.7038 18.0837C56.1347 17.8683 56.464 17.5636 56.6918 17.1697C56.9257 16.7757 57.0426 16.311 57.0426 15.7755C57.0426 15.2338 56.9257 14.7722 56.6918 14.3905C56.464 14.0028 56.1347 13.7073 55.7038 13.5042C55.2791 13.2949 54.7652 13.1903 54.1619 13.1903H53.3523C52.8 13.1903 52.3523 13.638 52.3523 14.1903V26.9999C52.3523 27.5522 51.9046 27.9999 51.3523 27.9999H48.2187Z" fill="#F0F4F8"/>
<path d="M67.6721 28.2215C66.7672 28.2215 65.967 28.0738 65.2715 27.7783C64.5821 27.4767 64.0404 27.0212 63.6465 26.4118C63.2525 25.8025 63.0556 25.0269 63.0556 24.0851C63.0556 23.3096 63.1879 22.6479 63.4526 22.1001C63.7173 21.5461 64.0866 21.0937 64.5605 20.7428C65.0345 20.392 65.5854 20.1242 66.2132 19.9395C66.8472 19.7549 67.5305 19.6349 68.263 19.5795C69.057 19.5179 69.6941 19.444 70.1742 19.3579C70.6605 19.2655 71.0113 19.1394 71.2267 18.9793C71.4422 18.8131 71.5499 18.5946 71.5499 18.3238V18.2868C71.5499 17.9175 71.4083 17.6344 71.1252 17.4374C70.842 17.2404 70.4789 17.142 70.0357 17.142C69.5494 17.142 69.1524 17.2497 68.8446 17.4651C68.7676 17.5185 68.6985 17.5794 68.6371 17.6476C68.304 18.0183 67.9293 18.4346 67.4309 18.4346H64.6835C64.1032 18.4346 63.6345 17.9359 63.8009 17.38C63.9401 16.9148 64.1502 16.4723 64.4313 16.0525C64.9237 15.32 65.6408 14.7352 66.5826 14.2982C67.5243 13.855 68.7 13.6334 70.1096 13.6334C71.1252 13.6334 72.0362 13.7535 72.8425 13.9935C73.6489 14.2274 74.3352 14.5567 74.9015 14.9814C75.4677 15.4 75.8986 15.8924 76.1941 16.4587C76.4957 17.0189 76.6465 17.6282 76.6465 18.2868V26.9999C76.6465 27.5522 76.1988 27.9999 75.6465 27.9999H72.8794C72.3287 27.9999 71.8823 27.5535 71.8823 27.0028V26.0749C71.8823 26.0366 71.8513 26.0056 71.813 26.0056V26.0056C71.7874 26.0056 71.764 26.0197 71.7517 26.0422C71.4724 26.5547 71.1343 26.9703 70.7374 27.289C70.3373 27.6152 69.8787 27.8522 69.3617 27.9999C68.8508 28.1476 68.2876 28.2215 67.6721 28.2215ZM69.334 25.0084C69.7218 25.0084 70.0849 24.9284 70.4235 24.7684C70.7682 24.6083 71.0482 24.3775 71.2637 24.0759C71.4791 23.7743 71.5868 23.4081 71.5868 22.9772V22.2569C71.5868 22.0367 71.3627 21.8852 71.1529 21.9523V21.9523C71.0052 22.0016 70.8451 22.0477 70.6728 22.0908C70.5066 22.1339 70.3281 22.1739 70.1373 22.2108C69.9526 22.2478 69.7587 22.2816 69.5556 22.3124C69.1616 22.374 68.8385 22.4755 68.5861 22.6171C68.3399 22.7525 68.1552 22.9218 68.0321 23.1249C67.9152 23.3219 67.8567 23.5435 67.8567 23.7897C67.8567 24.1836 67.9952 24.4852 68.2722 24.6945C68.5492 24.9038 68.9031 25.0084 69.334 25.0084Z" fill="#F0F4F8"/>
<path d="M82.3738 27.9999C81.915 27.9999 81.515 27.6876 81.4037 27.2424L78.3582 15.0606C78.2004 14.4295 78.6778 13.8181 79.3284 13.8181H82.3147C82.7957 13.8181 83.2086 14.1606 83.2975 14.6333L84.7588 22.4051C84.7648 22.437 84.7927 22.4601 84.8252 22.4601V22.4601C84.8571 22.4601 84.8847 22.4377 84.8912 22.4065L86.5231 14.6131C86.6202 14.1499 87.0286 13.8181 87.5019 13.8181H90.8344C91.304 13.8181 91.7103 14.1448 91.8111 14.6034L93.5104 22.3332C93.5172 22.3642 93.5446 22.3863 93.5764 22.3863V22.3863C93.609 22.3863 93.637 22.3629 93.6429 22.3307L95.0352 14.64C95.1213 14.1641 95.5356 13.8181 96.0192 13.8181H98.9998C99.6503 13.8181 100.128 14.4295 99.9699 15.0606L96.9245 27.2424C96.8132 27.6876 96.4132 27.9999 95.9543 27.9999H92.0039C91.5493 27.9999 91.1519 27.6932 91.0366 27.2535L89.2567 20.4634C89.2456 20.4213 89.2076 20.392 89.1641 20.392V20.392C89.1205 20.392 89.0825 20.4213 89.0715 20.4634L87.2915 27.2535C87.1763 27.6932 86.7789 27.9999 86.3242 27.9999H82.3738Z" fill="#F0F4F8"/>
<path d="M105.124 27.9999C104.665 27.9999 104.265 27.6876 104.154 27.2424L101.108 15.0606C100.95 14.4295 101.428 13.8181 102.078 13.8181H105.065C105.546 13.8181 105.959 14.1606 106.047 14.6333L107.509 22.4051C107.515 22.437 107.543 22.4601 107.575 22.4601V22.4601C107.607 22.4601 107.635 22.4377 107.641 22.4065L109.273 14.6131C109.37 14.1499 109.779 13.8181 110.252 13.8181H113.584C114.054 13.8181 114.46 14.1448 114.561 14.6034L116.26 22.3332C116.267 22.3642 116.295 22.3863 116.326 22.3863V22.3863C116.359 22.3863 116.387 22.3629 116.393 22.3307L117.785 14.64C117.871 14.1641 118.286 13.8181 118.769 13.8181H121.75C122.4 13.8181 122.878 14.4295 122.72 15.0606L119.674 27.2424C119.563 27.6876 119.163 27.9999 118.704 27.9999H114.754C114.299 27.9999 113.902 27.6932 113.787 27.2535L112.007 20.4634C111.996 20.4213 111.958 20.392 111.914 20.392V20.392C111.871 20.392 111.833 20.4213 111.821 20.4634L110.042 27.2535C109.926 27.6932 109.529 27.9999 109.074 27.9999H105.124Z" fill="#F0F4F8"/>
<path d="M11.5 18C10.8 18 10.2083 17.7583 9.725 17.275C9.24167 16.7917 9 16.2 9 15.5C9 14.8 9.24167 14.2083 9.725 13.725C10.2083 13.2417 10.8 13 11.5 13C12.2 13 12.7917 13.2417 13.275 13.725C13.7583 14.2083 14 14.8 14 15.5C14 16.2 13.7583 16.7917 13.275 17.275C12.7917 17.7583 12.2 18 11.5 18ZM16 14C15.3 14 14.7083 13.7583 14.225 13.275C13.7417 12.7917 13.5 12.2 13.5 11.5C13.5 10.8 13.7417 10.2083 14.225 9.725C14.7083 9.24167 15.3 9 16 9C16.7 9 17.2917 9.24167 17.775 9.725C18.2583 10.2083 18.5 10.8 18.5 11.5C18.5 12.2 18.2583 12.7917 17.775 13.275C17.2917 13.7583 16.7 14 16 14ZM22 14C21.3 14 20.7083 13.7583 20.225 13.275C19.7417 12.7917 19.5 12.2 19.5 11.5C19.5 10.8 19.7417 10.2083 20.225 9.725C20.7083 9.24167 21.3 9 22 9C22.7 9 23.2917 9.24167 23.775 9.725C24.2583 10.2083 24.5 10.8 24.5 11.5C24.5 12.2 24.2583 12.7917 23.775 13.275C23.2917 13.7583 22.7 14 22 14ZM26.5 18C25.8 18 25.2083 17.7583 24.725 17.275C24.2417 16.7917 24 16.2 24 15.5C24 14.8 24.2417 14.2083 24.725 13.725C25.2083 13.2417 25.8 13 26.5 13C27.2 13 27.7917 13.2417 28.275 13.725C28.7583 14.2083 29 14.8 29 15.5C29 16.2 28.7583 16.7917 28.275 17.275C27.7917 17.7583 27.2 18 26.5 18ZM13.65 28C12.9 28 12.2708 27.7125 11.7625 27.1375C11.2542 26.5625 11 25.8833 11 25.1C11 24.2333 11.2958 23.475 11.8875 22.825C12.4792 22.175 13.0667 21.5333 13.65 20.9C14.1333 20.3833 14.55 19.8208 14.9 19.2125C15.25 18.6042 15.6667 18.0333 16.15 17.5C16.5167 17.0667 16.9417 16.7083 17.425 16.425C17.9083 16.1417 18.4333 16 19 16C19.5667 16 20.0917 16.1333 20.575 16.4C21.0583 16.6667 21.4833 17.0167 21.85 17.45C22.3167 17.9833 22.7292 18.5583 23.0875 19.175C23.4458 19.7917 23.8667 20.3667 24.35 20.9C24.9333 21.5333 25.5208 22.175 26.1125 22.825C26.7042 23.475 27 24.2333 27 25.1C27 25.8833 26.7458 26.5625 26.2375 27.1375C25.7292 27.7125 25.1 28 24.35 28C23.45 28 22.5583 27.925 21.675 27.775C20.7917 27.625 19.9 27.55 19 27.55C18.1 27.55 17.2083 27.625 16.325 27.775C15.4417 27.925 14.55 28 13.65 28Z" fill="#EBA800"/>
</svg>
